<svg id="Layer_2" data-name="Layer 2" xmlns="http://www.w3.org/2000/svg" viewBox="0 0 194.04 17">
    <defs>
        <style>
            .cls-2 {
                fill: #008ce2;
            }

            .cls-3 {
                fill: #db4e3d;
            }

            .cls-4 {
                fill: white;
            }
        </style>
    </defs>
    <g id="Layer_1-2" data-name="Layer 1">
        <polygon class="cls-4" points="150.62 16.58 154.47 16.58 154.47 3.69 159.39 3.69 159.39 .23 145.69 .23 145.69 3.69 150.62 3.69 150.62 16.58"/>
        <path class="cls-4" d="M137.14,16.93c3.88,0,7.14-2.61,8.15-6.14h-3.81c-.79,1.68-2.43,2.87-4.34,2.87-2.69,0-4.83-2.31-4.83-5.18s2.15-5.14,4.86-5.14c1.94,0,3.64,1.17,4.41,2.97h3.76c-.96-3.62-4.27-6.23-8.17-6.23-4.67,0-8.48,3.78-8.48,8.43s3.81,8.43,8.45,8.43"/>
        <path class="cls-4" d="M119.12,16.86c4.39,0,7.24-2.85,7.24-6.44V.23h-3.74V9.85c0,2.71-1.63,3.74-3.39,3.74s-3.43-1.03-3.43-3.74V.23h-3.85V10.46c0,3.29,2.78,6.4,7.17,6.4"/>
        <path class="cls-4" d="M105.46,10.55c3.2-.84,3.88-3.27,3.88-5.21,0-2.9-1.75-5.11-5.28-5.11h-9.04V16.58h3.85v-5.7h2.62l4.13,5.7h4.41l-4.58-6.02Zm-2.31-2.99h-4.27V3.57h4.34c1.4,0,2.12,.77,2.12,1.96s-.68,2.03-2.19,2.03Z"/>
        <polygon class="cls-4" points="84.17 16.58 88.02 16.58 88.02 3.69 92.92 3.69 92.92 .23 79.24 .23 79.24 3.69 84.17 3.69 84.17 16.58"/>
        <path class="cls-4" d="M71.33,16.81c4.25,0,7-1.77,7-5.35,0-2.99-1.94-4.06-4.72-4.53l-3.36-.56c-1.73-.28-2.1-.82-2.1-1.52,0-1.14,1-1.82,2.75-1.82,1.61,0,2.94,.56,3.29,2.17h3.92c-.47-3.53-3.46-5.21-7.19-5.21-4.04,0-6.49,1.98-6.49,5.09,0,2.43,1.52,4.06,4.51,4.58l3.62,.63c1.21,.21,2.03,.91,2.03,1.8,0,.98-.96,1.68-2.92,1.68s-3.48-.75-3.71-2.17h-3.97c.4,3.43,3.08,5.21,7.33,5.21"/>
        <polygon class="cls-4" points="47.19 16.58 50.73 16.58 50.73 6.23 58.28 16.58 61.47 16.58 61.47 .23 57.93 .23 57.93 10.11 50.78 .23 47.19 .23 47.19 16.58"/>
        <path class="cls-3" d="M36.31,.07c-4.67,0-8.48,3.78-8.48,8.43s3.81,8.43,8.48,8.43,8.45-3.78,8.45-8.43S40.95,.07,36.31,.07Zm-.02,13.59c-2.69,0-4.83-2.31-4.83-5.18s2.15-5.14,4.83-5.14,4.86,2.26,4.86,5.14-2.17,5.18-4.86,5.18Z"/>
        <polygon class="cls-4" points="18.77 12.98 22.58 12.98 25.85 8.5 22.58 4.02 18.77 4.02 22.13 8.5 18.77 12.98"/>
        <path class="cls-2" d="M8.45,16.93c3.88,0,7.14-2.61,8.15-6.14h-3.81c-.79,1.68-2.43,2.87-4.34,2.87-2.69,0-4.83-2.31-4.83-5.18S5.77,3.34,8.48,3.34c1.94,0,3.64,1.17,4.41,2.97h3.76C15.69,2.69,12.37,.07,8.48,.07,3.81,.07,0,3.85,0,8.5s3.81,8.43,8.45,8.43"/>
        <path class="cls-4" d="M189.47,10.55c3.2-.84,3.88-3.27,3.88-5.21,0-2.9-1.75-5.11-5.28-5.11h-9.04V16.58h3.85v-5.7h2.61l4.13,5.7h4.41l-4.58-6.02Zm-2.31-2.99h-4.27V3.57h4.34c1.4,0,2.12,.77,2.12,1.96s-.68,2.03-2.19,2.03Z"/>
        <path class="cls-4" d="M168.24,.07c-4.67,0-8.48,3.78-8.48,8.43s3.81,8.43,8.48,8.43,8.45-3.78,8.45-8.43S172.89,.07,168.24,.07Zm-.02,13.59c-2.69,0-4.83-2.31-4.83-5.18s2.15-5.14,4.83-5.14,4.86,2.26,4.86,5.14-2.17,5.18-4.86,5.18Z"/>
    </g>
</svg>