<svg id="Layer_2" data-name="Layer 2" xmlns="http://www.w3.org/2000/svg" viewBox="0 0 137.8 17">
    <defs>
        <style>
            .cls-1 {
                fill: white;
            }
        </style>
    </defs>
    <g id="Layer_1-2" data-name="Layer 1" transform="translate(0 -23.3)">
        <path class="cls-1" d="M7.88,40.39c-1.12,0-2.1-.16-2.93-.48-.83-.32-1.51-.75-2.06-1.3-.55-.55-.96-1.18-1.23-1.89-.27-.71-.41-1.46-.41-2.25v-10.74h1.25v10.46c0,.8,.13,1.52,.39,2.16,.26,.63,.63,1.17,1.11,1.6,.48,.43,1.06,.76,1.73,.99,.67,.23,1.42,.34,2.24,.34s1.51-.11,2.17-.34c.66-.22,1.22-.55,1.7-.99,.47-.43,.84-.97,1.1-1.6,.26-.63,.39-1.35,.39-2.16v-10.46h1.2v10.69c0,.8-.14,1.56-.42,2.29-.28,.72-.7,1.36-1.25,1.9-.55,.54-1.25,.98-2.08,1.3-.83,.32-1.8,.48-2.89,.48Z"/>
        <path class="cls-1" d="M19.18,23.73h1.83l7.51,10.88c.47,.69,.92,1.38,1.37,2.06,.45,.68,.88,1.34,1.3,1.99h.05c-.02-1.08-.03-2.08-.05-3.01-.02-.93-.02-1.93-.02-2.99v-8.93h1.23v16.37h-1.69l-6.81-9.89c-.59-.87-1.19-1.73-1.79-2.6-.6-.87-1.18-1.76-1.75-2.7h-.05c.02,.58,.03,1.19,.04,1.84,0,.65,.01,1.3,.01,1.96v11.39h-1.18V23.73Z"/>
        <path class="cls-1" d="M36.98,23.73h1.3v16.37h-1.3V23.73Z"/>
        <path class="cls-1" d="M41.07,23.73h1.4l4.21,11c.3,.8,.57,1.51,.81,2.13,.23,.62,.47,1.25,.71,1.89h.07c.22-.66,.45-1.3,.69-1.93,.23-.63,.5-1.32,.81-2.09l4.12-11h1.35l-6.31,16.37h-1.47l-6.38-16.37Z"/>
        <path class="cls-1" d="M58.01,23.73h11v1.16h-9.75v6.36h6.62v1.16h-6.62v6.52h9.99v1.18h-11.24V23.73Z"/>
        <path class="cls-1" d="M72.23,23.73h7.44c.91,0,1.68,.13,2.3,.4,.62,.26,1.12,.61,1.5,1.04,.39,.43,.66,.91,.83,1.46,.17,.54,.25,1.11,.25,1.68,0,.55-.08,1.08-.23,1.59-.15,.51-.4,.98-.75,1.4-.35,.42-.79,.78-1.35,1.08-.55,.3-1.22,.51-2.01,.62l4.86,7.1h-1.52l-4.69-6.93h-5.39v6.93h-1.25V23.73Zm6.67,8.28c.82,0,1.5-.1,2.06-.31,.55-.21,1-.49,1.32-.83,.33-.35,.57-.73,.71-1.17s.22-.88,.22-1.35-.07-.88-.2-1.3c-.14-.42-.35-.79-.65-1.11-.3-.32-.69-.58-1.17-.77-.48-.19-1.07-.29-1.76-.29h-5.95v7.13h5.42Z"/>
        <path class="cls-1" d="M94.31,40.35c-.95,0-1.81-.1-2.6-.3-.79-.2-1.48-.5-2.07-.9-.59-.4-1.07-.91-1.42-1.53-.35-.62-.57-1.34-.65-2.18h1.32c.08,.66,.27,1.24,.58,1.72,.3,.48,.69,.88,1.17,1.19,.47,.31,1.02,.53,1.65,.68,.63,.15,1.32,.22,2.07,.22,.66,0,1.27-.07,1.84-.21,.57-.14,1.06-.34,1.47-.62,.41-.27,.73-.62,.96-1.03,.23-.41,.35-.9,.35-1.46,0-.76-.16-1.33-.49-1.73-.33-.39-.74-.71-1.24-.93-.48-.24-1-.42-1.56-.53-.56-.11-1.16-.23-1.81-.34-.75-.13-1.41-.26-1.96-.38-.55-.13-1.1-.33-1.65-.6-.61-.3-1.09-.72-1.44-1.25-.35-.53-.53-1.2-.53-2.02,0-.72,.14-1.37,.42-1.95,.28-.58,.67-1.06,1.17-1.45,.5-.39,1.09-.7,1.77-.91,.68-.22,1.42-.32,2.23-.32s1.5,.09,2.19,.28c.69,.18,1.3,.47,1.84,.85,.54,.39,.98,.87,1.34,1.46,.35,.59,.58,1.29,.67,2.11h-1.35c-.08-.61-.26-1.15-.53-1.6-.27-.45-.62-.82-1.04-1.12-.42-.29-.9-.51-1.44-.65-.55-.15-1.13-.22-1.76-.22-1.3,0-2.34,.31-3.11,.93-.77,.62-1.16,1.45-1.16,2.48,0,.57,.12,1.03,.36,1.39,.24,.36,.57,.66,.98,.88,.41,.23,.88,.4,1.41,.52,.53,.12,1.09,.23,1.69,.33,1.03,.18,1.92,.36,2.67,.54,.75,.18,1.4,.45,1.93,.81,.51,.32,.93,.73,1.24,1.24s.47,1.19,.47,2.05c0,.75-.15,1.42-.45,1.98-.3,.57-.71,1.05-1.24,1.43-.53,.38-1.16,.67-1.89,.87-.73,.19-1.53,.29-2.4,.29Z"/>
        <path class="cls-1" d="M104.04,23.73h1.3v16.37h-1.3V23.73Z"/>
        <path class="cls-1" d="M113.94,24.89h-5.9v-1.16h13.1v1.16h-5.9v15.21h-1.3v-15.21Z"/>
        <path class="cls-1" d="M129.42,33.22l-6.36-9.49h1.54l3.68,5.56c.35,.56,.67,1.06,.96,1.48,.29,.43,.56,.85,.82,1.26h.07c.24-.38,.49-.79,.76-1.2,.26-.42,.57-.89,.93-1.42l3.73-5.68h1.47l-6.33,9.49v6.89h-1.28v-6.89Z"/>
    </g>
</svg>